<?xml version="1.0" encoding="UTF-8" standalone="no"?>
<!-- Created with Inkscape (http://www.inkscape.org/) -->

<svg
   width="27.516665mm"
   height="27.986725mm"
   viewBox="0 0 27.516665 27.986725"
   version="1.1"
   id="svg3026"
   xmlns:xlink="http://www.w3.org/1999/xlink"
   xmlns="http://www.w3.org/2000/svg"
   xmlns:svg="http://www.w3.org/2000/svg">
  <defs
     id="defs3023">
    <linearGradient
       id="linearGradient7733"
       gradientUnits="userSpaceOnUse"
       x1="116"
       x2="12"
       y1="117.999"
       y2="117.999"
       gradientTransform="matrix(0.26458333,0,0,0.26458333,-83.711151,181.78565)">
      <stop
         offset="0"
         stop-color="#d5d3cf"
         id="stop7721"
         style="stop-color:#5e5c64;stop-opacity:1;" />
      <stop
         offset="0.038"
         stop-color="#e3e2df"
         id="stop7723"
         style="stop-color:#8a8791;stop-opacity:1;" />
      <stop
         offset="0.077"
         stop-color="#c0bfbc"
         id="stop7725"
         style="stop-color:#46454b;stop-opacity:1;" />
      <stop
         offset="0.92299998"
         stop-color="#c0bfbc"
         id="stop7727"
         style="stop-color:#46454a;stop-opacity:1;" />
      <stop
         offset="0.96200001"
         stop-color="#e3e2df"
         id="stop7729"
         style="stop-color:#88878f;stop-opacity:1;" />
      <stop
         offset="1"
         stop-color="#d5d3cf"
         id="stop7731"
         style="stop-color:#6d6a76;stop-opacity:1;" />
    </linearGradient>
    <linearGradient
       xlink:href="#linearGradient7733"
       id="linearGradient1005"
       gradientUnits="userSpaceOnUse"
       gradientTransform="matrix(0.26458333,0,0,0.26458333,-35.500195,297.34317)"
       x1="116"
       y1="117.999"
       x2="12"
       y2="117.999" />
  </defs>
  <g
     id="layer1"
     transform="translate(32.325192,-300.04809)">
    <path
       d="M -6.9251952,315.33483 H -30.208523 c -1.16901,0 -2.11667,0.94766 -2.11667,2.11667 v 8.46666 c 0,1.16893 0.94766,2.11667 2.11667,2.11667 h 23.2833278 c 1.168929,0 2.116666,-0.94774 2.116666,-2.11667 v -8.46666 c 0,-1.16901 -0.947737,-2.11667 -2.116666,-2.11667 z"
       fill="url(#paint0_linear)"
       id="path15-2-9-1-6"
       style="fill:url(#linearGradient1005);stroke-width:0.264583" />
    <path
       d="m -30.208527,300.04808 c -1.172634,0 -2.116667,0.94403 -2.116667,2.11667 v 11.11249 11.1125 c 0,1.17264 0.944033,2.11667 2.116667,2.11667 h 11.641666 11.6416668 c 1.172633,0 2.116666,-0.94403 2.116666,-2.11667 v -11.1125 -11.11249 c 0,-1.17264 -0.944033,-2.11667 -2.116666,-2.11667 z"
       fill="#f66151"
       id="path17-7-1-2"
       style="fill:#5e5c64;fill-opacity:1;stroke-width:0.264583" />
    <path
       id="rect3732-8-4-7-5-8-9-9-8-5-9-0-4-9"
       style="fill:#464648;fill-opacity:1;stroke-width:0.437549"
       d="m -22.819103,304.22182 h 13.5303278 c 0.532971,0 0.961788,0.86674 0.961788,1.94468 v 1.55151 c 0,1.07798 -0.428817,1.94477 -0.961788,1.94477 H -22.819103 Z" />
    <path
       id="rect3732-8-4-7-5-8-9-9-8-6-9-92-1"
       style="fill:#77767b;fill-opacity:1;stroke-width:0.437549"
       d="m -22.819108,303.33688 h 13.5303288 c 0.532972,0 0.96179,0.86673 0.96179,1.9447 v 1.55152 c 0,1.07794 -0.428818,1.94476 -0.96179,1.94476 H -22.819108 Z" />
    <path
       id="path71949-3-8-7-2-29-2-0-3-0-2"
       style="fill:#464648;fill-opacity:1;stroke-width:0.437549"
       d="m -23.297237,304.22182 v 5.44096 h -4.431328 c -0.532972,0 -0.961779,-0.86679 -0.961779,-1.94477 v -1.55151 c 0,-1.07794 0.428807,-1.94468 0.961779,-1.94468 z" />
    <path
       id="path71949-3-8-7-2-29-4-6-6-7"
       style="fill:#77767b;fill-opacity:1;stroke-width:0.437549"
       d="m -23.297239,303.33688 v 5.44098 h -4.43133 c -0.53297,0 -0.961779,-0.86682 -0.961779,-1.94476 v -1.55152 c 0,-1.07797 0.428809,-1.9447 0.961779,-1.9447 z" />
    <rect
       style="fill:#676661;fill-opacity:1;stroke-width:1.0238"
       id="rect100521-9-1-0-89-0"
       width="0.47813079"
       height="5.4409504"
       x="22.819109"
       y="304.2218"
       rx="0"
       ry="0"
       transform="scale(-1,1)" />
    <rect
       style="fill:#b7b5af;fill-opacity:1;stroke-width:1.0238"
       id="rect100521-04-6-2-9"
       width="0.47813079"
       height="5.4409504"
       x="22.819109"
       y="303.33691"
       rx="0"
       ry="0"
       transform="scale(-1,1)" />
    <path
       id="rect3732-8-4-7-5-8-9-9-8-5-0-87-2-6-3"
       style="fill:#464648;fill-opacity:1;stroke-width:0.437549"
       d="m -22.819103,311.09318 h 13.5303288 c 0.532972,0 0.96179,0.86673 0.96179,1.94467 v 1.55152 c 0,1.07797 -0.428818,1.94477 -0.96179,1.94477 H -22.819103 Z" />
    <path
       id="rect3732-8-4-7-5-8-9-9-8-2-0-6-6-6"
       style="fill:#77767b;fill-opacity:1;stroke-width:0.437549"
       d="m -22.819105,310.20824 h 13.5303288 c 0.53297,0 0.961787,0.86673 0.961787,1.94468 v 1.55154 c 0,1.07794 -0.428817,1.94475 -0.961787,1.94475 H -22.819105 Z" />
    <path
       id="path71949-3-8-7-2-29-2-8-8-1-4-0"
       style="fill:#37a86a;fill-opacity:1;stroke-width:0.437549"
       d="m -23.297234,311.09318 v 5.44096 h -4.43133 c -0.53297,0 -0.961779,-0.8668 -0.961779,-1.94477 v -1.55152 c 0,-1.07794 0.428809,-1.94467 0.961779,-1.94467 z" />
    <path
       id="path71949-3-8-7-2-29-3-6-8-9-6"
       style="fill:#66bb6a;fill-opacity:1;stroke-width:0.437549"
       d="m -23.297239,310.7078 v 5.44097 h -4.431327 c -0.532973,0 -0.96178,-0.86681 -0.96178,-1.94475 v -1.55154 c 0,-1.07795 0.428807,-1.94468 0.96178,-1.94468 z" />
    <rect
       style="fill:#676661;fill-opacity:1;stroke-width:1.0238"
       id="rect100521-9-8-24-7-5-2"
       width="0.47813079"
       height="5.4409504"
       x="22.819105"
       y="311.09317"
       rx="0"
       ry="0"
       transform="scale(-1,1)" />
    <rect
       style="fill:#b7b5af;fill-opacity:1;stroke-width:1.0238"
       id="rect100521-0-7-9-04-6"
       width="0.47813079"
       height="5.4409504"
       x="22.819105"
       y="310.20828"
       rx="0"
       ry="0"
       transform="scale(-1,1)" />
    <path
       id="rect3732-8-4-7-5-8-9-9-8-5-0-8-9-2-8-1"
       style="fill:#464648;fill-opacity:1;stroke-width:0.437549"
       d="m -22.819097,317.96453 h 13.5303268 c 0.532973,0 0.961791,0.86674 0.961791,1.94468 v 1.55152 c 0,1.07797 -0.428818,1.94476 -0.961791,1.94476 H -22.819097 Z" />
    <path
       id="rect3732-8-4-7-5-8-9-9-8-2-8-3-0-7-8"
       style="fill:#77767b;fill-opacity:1;stroke-width:0.437549"
       d="m -22.819097,317.07959 h 13.5303248 c 0.532971,0 0.961788,0.86673 0.961788,1.94469 v 1.55151 c 0,1.07796 -0.428813,1.94476 -0.961788,1.94476 H -22.819102 Z" />
    <path
       id="path71949-3-8-7-2-29-2-8-9-9-2-1-7"
       style="fill:#464648;fill-opacity:1;stroke-width:0.437549"
       d="m -23.29723,317.96453 v 5.44096 h -4.431329 c -0.532972,0 -0.961778,-0.86679 -0.961778,-1.94476 v -1.55152 c 0,-1.07794 0.428806,-1.94468 0.961778,-1.94468 z" />
    <path
       id="path71949-3-8-7-2-29-3-2-2-3-7-9"
       style="fill:#77767b;fill-opacity:1;stroke-width:0.437549"
       d="m -23.297233,317.07959 v 5.44096 h -4.431328 c -0.53297,0 -0.961779,-0.8668 -0.961779,-1.94476 v -1.55151 c 0,-1.07796 0.428807,-1.94469 0.961779,-1.94469 z" />
    <rect
       style="fill:#676661;fill-opacity:1;stroke-width:1.0238"
       id="rect100521-9-8-8-83-7-2-2"
       width="0.47813079"
       height="5.4409504"
       x="22.819094"
       y="317.96457"
       rx="0"
       ry="0"
       transform="scale(-1,1)" />
    <rect
       style="fill:#b7b5af;fill-opacity:1;stroke-width:1.0238"
       id="rect100521-0-8-0-5-7-0"
       width="0.47813079"
       height="5.4409504"
       x="22.819094"
       y="317.07965"
       rx="0"
       ry="0"
       transform="scale(-1,1)" />
    <path
       style="fill:#26a269;fill-opacity:1;stroke:none;stroke-width:0.4;stroke-linecap:round;stroke-dasharray:none;paint-order:markers fill stroke"
       id="path4138"
       d="m -25.143844,313.76532 c 0.0059,0.10814 -0.672052,0.56208 -0.765841,0.61623 -0.101319,0.0585 -0.881361,0.44794 -0.985704,0.39502 -0.09659,-0.049 -0.150749,-0.86305 -0.150749,-0.97135 0,-0.11699 0.05275,-0.98725 0.150749,-1.05115 0.09071,-0.0592 0.822802,0.30097 0.91659,0.35512 0.101319,0.0585 0.828609,0.53931 0.834955,0.65613 z"
       transform="translate(0.23810549,-0.23535238)" />
  </g>
</svg>
